<?xml version="1.0" encoding="utf-8"?>
<!-- Generator: Adobe Illustrator 21.1.0, SVG Export Plug-In . SVG Version: 6.00 Build 0)  -->
<svg version="1.1" id="Layer_1" xmlns="http://www.w3.org/2000/svg" xmlns:xlink="http://www.w3.org/1999/xlink" x="0px" y="0px"
	 viewBox="0 0 302 64" style="enable-background:new 0 0 302 64;" xml:space="preserve">
<style type="text/css">
	.st0{fill:#3F46AE;}
	.st1{fill:#FFFFFF;}
	.st2{fill:#111111;}
</style>
<g>
	<g>
		<g>
			<path class="st2" d="M50.7,22.8h-2.4V11c0-0.7,0.5-1.2,1.2-1.2h6.4v2.4h-5.2V22.8z"/>
			<path class="st2" d="M7.1,44.2H4.7v-6.4c0-0.7,0.5-1.2,1.2-1.2h13.3V39H7.1V44.2z"/>
			<g>
				<path class="st2" d="M58.1,29.7c-0.9-2.5-3-4.4-6.2-5.6c-1.5-2.6-4-4.1-7.1-4.1c-1.2,0-2.3,0.2-3.1,0.4
					c-1.8-1.1-3.5-1.7-5.3-1.7c-3.1,0-5.3,1.7-6.3,2.7c0,0-0.1,0-0.1,0c-3.1,0-5,1.3-6,2.4c-0.8,0.9-1.3,1.9-1.5,2.6
					c-3,1.4-3.9,3.7-4.1,5.4c-0.2,1.6,0.2,3.1,0.5,4c-0.2,0.4-0.3,0.8-0.4,1.2c-0.1,0.2-0.1,0.3-0.1,0.3c0,0,0,0,0,0.1
					c-0.4,1.6-0.3,3.4,0.8,5.3c1.8,2.9,4.6,4.5,8.1,4.5c1.4,0,2.7-0.3,3.5-0.5c0.7,0.5,1.2,0.7,1.5,0.8c1.2,0.5,2.5,0.8,3.7,0.8
					c1.1,0,2.1-0.2,2.8-0.5c1,1.3,2.6,2,4.6,2c0.1,0,0.2,0,0.2,0c0.5,0.9,2.2,5.7,2.4,5.9c0.3,0.4,0.9,1.1,2.2,1.1
					c0.8,0,2.2-0.3,3.5-1.1c1.6-1,2.2-2.4,2.3-3.3c0.1-0.7-1.1-3.3-1.7-4.4c2.4-1,3.6-2.8,4.1-4.3c0.8-2.2,0.6-4.4,0.5-5.6
					C58.6,35,59,32.2,58.1,29.7z M49.2,46.3c-0.3,0,2.5,5.6,2.5,5.8c0,0.2-0.3,1-1.3,1.6c-0.9,0.5-1.8,0.7-2.3,0.7
					c-0.1,0-0.2,0-0.2-0.1c-0.1-0.2-1.6-5.6-3.2-7c0,0-0.1,0-0.2,0c-0.2,0-0.7,0.1-1.2,0.1c-0.8,0-1.7-0.1-2.4-0.7
					c1.5-1,2.2-2.3,2.8-3.3l0.1-0.1c0.8-1.4,1.6-2.6,3.6-2.6c0.6,0,1.2-0.5,1.2-1.1c0-0.6-0.5-1.2-1.1-1.2c-3.6-0.1-5,2.5-5.7,3.7
					l-0.1,0.1c-0.8,1.4-2.6,3.5-5.8,3.6c-0.8,0-1.7-0.2-2.8-0.6c0,0,0,0,0,0c-0.5-0.2-1-0.5-1.6-0.9c-0.8-0.6-1.7-1.7-2.3-3.4
					c-0.2-0.6-0.9-0.9-1.5-0.7c-0.6,0.2-0.9,0.9-0.7,1.5c0.4,1.2,1,2.1,1.6,2.9c-0.5,0.1-1,0.1-1.5,0.1c-2,0-4.4-0.7-6.2-3.4
					c-0.8-1.3-0.8-2.6-0.5-3.6c0,0,0,0,0,0c0,0,0.3-1,1.4-1.7c1.3-0.7,3.2-0.8,5.5-0.2c0.6,0.2,1.2-0.2,1.4-0.8
					c0.2-0.6-0.2-1.2-0.8-1.4c-3-0.8-5.5-0.6-7.3,0.5c-0.4-1.8-0.3-4.6,3.5-6c0.2-0.1,0.6-4.4,5.7-4.4c0.3,0,0.6,0.1,1,0.1
					c0,0,0,0,0,0c0.1,0,2.2-2.8,5.5-2.8c0.9,0,1.9,0.2,2.9,0.7c-0.9,0.8-1.7,1.8-2.2,3.1c0,0,0,0,0,0c0,0,0,0,0,0c0,0,0,0,0,0
					c-0.2,0.4-0.3,0.8-0.4,1.2c-0.6,1.8-0.9,2.4-2.4,2.4c-0.6,0-1.1,0.5-1.1,1.1c0,0.6,0.5,1.1,1.1,1.1c1.8,0,2.9-0.7,3.5-1.7
					c0.5,0.6,1.4,1.2,2.8,1.3c0,0,0.1,0,0.1,0c0.6,0,1.1-0.4,1.1-1c0-0.6-0.4-1.2-1-1.2c-0.6,0-1.1-0.3-1.3-0.7
					c-0.4-0.6-0.3-1.4-0.2-1.7c1-3.1,5.4-3.4,5.6-3.4c1.9,0,4.1,0.7,5.5,3.6c0.1,0.1,8.5,2.1,5.3,9.7c0-0.1-0.1-0.1-0.1-0.2
					c-1.1-1.5-3.3-3.4-7.4-3.6c-0.6,0-1.2,0.4-1.2,1.1c0,0.6,0.4,1.2,1.1,1.2c6,0.4,6.7,4.9,6.8,5.1c0,0.1,0,0.1,0.1,0.2
					C54.8,41.8,54.4,45.8,49.2,46.3z"/>
				<path class="st2" d="M40.2,33.9c-1.5-0.2-3,0.3-3.9,1.4c-0.9,1-1.2,2.4-0.8,3.9c0.1,0.5,0.6,0.9,1.1,0.9c0.1,0,0.2,0,0.3,0
					c0.6-0.2,1-0.8,0.8-1.4c-0.2-0.7-0.1-1.4,0.3-1.9c0.4-0.5,1.2-0.8,1.9-0.7c0.6,0.1,1.2-0.4,1.3-1C41.3,34.6,40.9,34,40.2,33.9z"
					/>
			</g>
			<path class="st2" d="M58.4,14.5c-1.9,0-3.4-1.5-3.4-3.4s1.5-3.4,3.4-3.4s3.4,1.5,3.4,3.4S60.3,14.5,58.4,14.5z M58.4,9.8
				c-0.7,0-1.3,0.6-1.3,1.3s0.6,1.3,1.3,1.3c0.7,0,1.3-0.6,1.3-1.3S59.2,9.8,58.4,9.8z"/>
			<path class="st2" d="M6,48.9c-1.9,0-3.4-1.5-3.4-3.4c0-1.9,1.5-3.4,3.4-3.4c1.9,0,3.4,1.5,3.4,3.4C9.4,47.4,7.8,48.9,6,48.9z
				 M6,44.2c-0.7,0-1.3,0.6-1.3,1.3c0,0.7,0.6,1.3,1.3,1.3s1.3-0.6,1.3-1.3C7.3,44.8,6.7,44.2,6,44.2z"/>
			<path class="st2" d="M70.2,45.4c-1.9,0-3.4-1.5-3.4-3.4c0-1.9,1.5-3.4,3.4-3.4c1.9,0,3.4,1.5,3.4,3.4
				C73.6,43.9,72.1,45.4,70.2,45.4z M70.2,40.7c-0.7,0-1.3,0.6-1.3,1.3c0,0.7,0.6,1.3,1.3,1.3s1.3-0.6,1.3-1.3
				C71.5,41.3,70.9,40.7,70.2,40.7z"/>
			<path class="st2" d="M69.4,30.3c-1.9,0-3.4-1.5-3.4-3.4c0-1.9,1.5-3.4,3.4-3.4c1.9,0,3.4,1.5,3.4,3.4
				C72.8,28.8,71.2,30.3,69.4,30.3z M69.4,25.6c-0.7,0-1.3,0.6-1.3,1.3s0.6,1.3,1.3,1.3s1.3-0.6,1.3-1.3S70.1,25.6,69.4,25.6z"/>
			<path class="st2" d="M37,8.4c-1.9,0-3.4-1.5-3.4-3.4s1.5-3.4,3.4-3.4c1.9,0,3.4,1.5,3.4,3.4S38.9,8.4,37,8.4z M37,3.7
				c-0.7,0-1.3,0.6-1.3,1.3s0.6,1.3,1.3,1.3s1.3-0.6,1.3-1.3S37.8,3.7,37,3.7z"/>
			<path class="st2" d="M21.5,8.8c-1.9,0-3.4-1.5-3.4-3.4c0-1.9,1.5-3.4,3.4-3.4c1.9,0,3.4,1.5,3.4,3.4C24.9,7.3,23.4,8.8,21.5,8.8z
				 M21.5,4.1c-0.7,0-1.3,0.6-1.3,1.3s0.6,1.3,1.3,1.3c0.7,0,1.3-0.6,1.3-1.3S22.3,4.1,21.5,4.1z"/>
			<path class="st2" d="M7.3,26.1c-1.9,0-3.4-1.5-3.4-3.4c0-1.9,1.5-3.4,3.4-3.4c1.9,0,3.4,1.5,3.4,3.4C10.7,24.6,9.2,26.1,7.3,26.1
				z M7.3,21.4C6.6,21.4,6,22,6,22.7C6,23.4,6.6,24,7.3,24s1.3-0.6,1.3-1.3C8.6,22,8,21.4,7.3,21.4z"/>
			<rect x="35.9" y="6.9" class="st2" width="2.1" height="12.1"/>
			<path class="st2" d="M34.3,58.5c-1.9,0-3.4-1.5-3.4-3.4s1.5-3.4,3.4-3.4c1.9,0,3.4,1.5,3.4,3.4S36.1,58.5,34.3,58.5z M34.3,53.8
				c-0.7,0-1.3,0.6-1.3,1.3c0,0.7,0.6,1.3,1.3,1.3c0.7,0,1.3-0.6,1.3-1.3C35.6,54.4,35,53.8,34.3,53.8z"/>
			<rect x="33.3" y="46.5" class="st2" width="2.1" height="6.6"/>
			<path class="st2" d="M27.3,23.6h-2.1v-8.1l-4.5-3c-0.3-0.2-0.5-0.5-0.5-0.9V7h2.1v4.1l4.5,3c0.3,0.2,0.5,0.5,0.5,0.9V23.6z"/>
			<path class="st2" d="M60.9,32.6h-3.4v-2.1h2.8l2.3-4c0.2-0.3,0.5-0.5,0.9-0.5h4.1V28h-3.5l-2.3,4C61.6,32.4,61.3,32.6,60.9,32.6z
				"/>
			<path class="st2" d="M16,28.8h6.6v-2.1h-6l-2.3-4c-0.2-0.3-0.5-0.5-0.9-0.5H9.3v2.1h3.5l2.3,4C15.2,28.6,15.6,28.8,16,28.8z"/>
			<path class="st2" d="M19.9,62.3c-1.9,0-3.4-1.5-3.4-3.4c0-1.9,1.5-3.4,3.4-3.4c1.9,0,3.4,1.5,3.4,3.4
				C23.3,60.8,21.8,62.3,19.9,62.3z M19.9,57.6c-0.7,0-1.3,0.6-1.3,1.3c0,0.7,0.6,1.3,1.3,1.3s1.3-0.6,1.3-1.3
				C21.3,58.2,20.7,57.6,19.9,57.6z"/>
			<path class="st2" d="M21.1,56.9H19v-4.7c0-0.3,0.2-0.7,0.5-0.9l4-2.6v-3.3h2.1v3.9c0,0.3-0.2,0.7-0.5,0.9l-4,2.6V56.9z"/>
			<rect x="56.2" y="40.7" class="st2" width="12.6" height="2.1"/>
		</g>
	</g>
	<g>
		<path class="st2" d="M84.6,43.3c0.1-0.3,0.3-0.6,0.6-0.7c0.1,0,0.4,0,0.8-0.1c0.4,0,0.7,0,0.8-0.1s0.4-0.1,0.6-0.3
			c0.2-0.2,0.4-0.4,0.5-0.7c0.1-0.3,0.1-0.9,0.1-2V26.4c0-1.5-0.1-2.4-0.3-2.7c-0.2-0.3-1-0.5-2.3-0.5h-0.3c-0.3,0-0.5-0.3-0.5-0.8
			c0-0.6,0.1-1,0.4-1.1l0.3-0.1C90,21.1,93.5,21,95.8,21c2.3,0,4.2,0.2,5.8,0.6c1.5,0.4,3,1,4.3,2c3,2.1,4.4,5,4.4,8.7
			c0,2.7-0.8,5.1-2.5,7.3c-1.7,2.2-3.8,3.7-6.5,4.4c-1.8,0.5-4.2,0.8-7.1,0.8l-8.4,0c-0.5,0-0.9-0.2-1.1-0.5
			c-0.1-0.2-0.2-0.4-0.2-0.6C84.5,43.5,84.5,43.4,84.6,43.3z M92.3,40.7c0,0.8,0.1,1.3,0.4,1.6c0.3,0.3,0.9,0.4,1.9,0.4
			c3.4,0,6.1-0.8,8-2.4c1.9-1.6,2.9-4.1,2.9-7.5c0-1.7-0.3-3.2-0.9-4.6c-0.6-1.4-1.5-2.5-2.5-3.3c-0.7-0.6-1.5-1-2.3-1.3
			c-0.8-0.3-1.8-0.5-3.2-0.6C95.9,23,95.2,23,94.4,23c-0.5,0-1,0-1.5,0c-0.1,0-0.2,0.1-0.4,0.2c-0.1,0.1-0.2,0.2-0.2,0.3V40.7z"/>
		<path class="st2" d="M112.6,37.4c0-2.3,0.7-4.3,2.1-5.8c1.4-1.5,3.2-2.3,5.4-2.3c2.6,0,4.3,1.1,5.3,3.3c0.4,0.8,0.7,1.3,1,1.6
			c0.1,0.2,0.1,0.3,0.1,0.5c0,0.1,0,0.3-0.1,0.4c-0.1,0.3-0.4,0.5-0.8,0.5c-0.9,0-2.1,0.1-3.6,0.1s-3.4,0-5.6-0.1
			c-0.3,0-0.5,0.3-0.5,1c0,1.7,0.5,3,1.4,4.1c0.9,1.1,2,1.6,3.4,1.6c1.5,0,2.8-0.7,4-2.1c0.2-0.3,0.5-0.4,0.9-0.3
			c0.2,0,0.4,0.2,0.6,0.5c0.1,0.3,0.1,0.5,0,0.8c-2.4,2.6-4.7,4-6.9,4c-2,0-3.6-0.8-4.9-2.3C113.3,41.4,112.6,39.5,112.6,37.4z
			 M116.5,33.6c0,0.1,0.2,0.1,0.5,0.1h4.8c0.1,0,0.2,0,0.3-0.1c0.1,0,0.1-0.1,0.1-0.1c0-1.6-1-2.4-2.9-2.4
			C118.2,31.1,117.2,31.9,116.5,33.6z"/>
		<path class="st2" d="M127.9,37.4c0-2.3,0.7-4.3,2.1-5.8c1.4-1.5,3.2-2.3,5.4-2.3c2.6,0,4.3,1.1,5.3,3.3c0.4,0.8,0.7,1.3,1,1.6
			c0.1,0.2,0.1,0.3,0.1,0.5c0,0.1,0,0.3-0.1,0.4c-0.1,0.3-0.4,0.5-0.8,0.5c-0.9,0-2.1,0.1-3.6,0.1s-3.4,0-5.6-0.1
			c-0.3,0-0.5,0.3-0.5,1c0,1.7,0.5,3,1.4,4.1c0.9,1.1,2,1.6,3.4,1.6c1.5,0,2.8-0.7,4-2.1c0.2-0.3,0.5-0.4,0.9-0.3
			c0.2,0,0.4,0.2,0.6,0.5c0.1,0.3,0.1,0.5,0,0.8c-2.4,2.6-4.7,4-6.9,4c-2,0-3.6-0.8-4.9-2.3C128.6,41.4,127.9,39.5,127.9,37.4z
			 M131.8,33.6c0,0.1,0.2,0.1,0.5,0.1h4.8c0.1,0,0.2,0,0.3-0.1c0.1,0,0.1-0.1,0.1-0.1c0-1.6-1-2.4-2.9-2.4
			C133.4,31.1,132.5,31.9,131.8,33.6z"/>
		<path class="st2" d="M142.7,52.9c0.1-0.2,0.4-0.3,0.7-0.3c0.8,0,1.3-0.2,1.6-0.5c0.2-0.4,0.3-1.4,0.3-3V34.7v-0.8
			c0-0.3,0-0.5-0.1-0.6c-0.1-0.1-0.2-0.2-0.5-0.2c-0.1,0-0.3-0.1-0.6-0.2c-0.3-0.1-0.5-0.2-0.6-0.2c-0.3-0.1-0.5-0.3-0.5-0.7
			c0-0.4,0-0.6,0.2-0.8c0,0,0.1-0.1,0.1-0.2l4-2.4c0.2-0.2,0.5-0.2,0.8-0.2c0.1,0,0.1,0,0.2,0c0.4,0,0.6,0.3,0.6,0.8v1.9
			c0,0.3,0.1,0.4,0.2,0.3c1.9-1.3,3.4-2,4.6-2c0,0,0,0,0,0c1.6,0,3,0.7,4.2,2.2c1.2,1.5,1.8,3.2,1.8,5.1c0,2.3-0.8,4.3-2.5,6
			c-1.6,1.7-3.5,2.6-5.7,2.6c-0.6,0-1.4-0.1-2.3-0.4c-0.1,0-0.1,0-0.2,0.1c-0.1,0.1-0.1,0.2-0.1,0.3v3.8c0,1.2,0,2,0.1,2.4
			c0.1,0.4,0.3,0.7,0.5,0.8c0.2,0.1,0.6,0.2,1.2,0.2h0.5c0.5,0,0.9,0.2,1,0.5c0,0.1,0.1,0.3,0.1,0.6c0,0.3,0,0.5-0.1,0.6
			c-0.1,0.2-0.4,0.4-0.8,0.4c-0.5,0-3.2,0-7.9,0c-0.3,0-0.6-0.1-0.7-0.3c-0.1-0.2-0.2-0.4-0.2-0.6C142.5,53.4,142.6,53.2,142.7,52.9
			z M148.9,41.3c1.2,1.1,2.4,1.7,3.6,1.7c1,0,1.9-0.5,2.5-1.4c0.7-1,1-2.2,1-3.7c0-1.7-0.4-3-1.2-4c-0.8-1-1.7-1.5-2.9-1.5
			c-0.8,0-1.8,0.5-3,1.4c-0.1,0.1-0.1,0.2-0.1,0.4V41.3z"/>
		<path class="st2" d="M170.9,21c0.3-0.3,0.6-0.4,0.9-0.4c0,0,0.1,0,0.1,0c0.4,0,0.6,0.2,0.8,0.4c0.1,0.2,0.6,0.4,1.6,0.4
			c2.4,0,4.8,0,7.2,0c2.4,0,4.9,0,7.3,0c0.8,0,1.2,0,1.3,0c0.2,0,0.3-0.2,0.3-0.3c0.1-0.2,0.4-0.4,0.8-0.4c0.2,0,0.3,0,0.5,0.1
			c0.3,0,0.5,0.3,0.5,0.6l0.5,5.8c0,0,0,0.1,0,0.1c0,0.2-0.1,0.4-0.2,0.5c-0.2,0.1-0.4,0.2-0.6,0.2c-0.6,0-0.9-0.3-1-0.8
			c-0.3-1.4-0.6-2.3-0.8-2.7c-0.3-0.4-0.7-0.6-1.2-0.6h-4.7c-0.3,0-0.5,0.3-0.5,0.9v15v1.2c0,0.6,0.1,1.1,0.4,1.4
			c0.3,0.3,0.9,0.4,1.8,0.4h1c0.4,0,0.7,0.2,0.8,0.6c0.1,0.4,0.2,0.7,0,1c-0.1,0.4-0.4,0.5-0.9,0.5c-1.2,0-2.5-0.1-4.1-0.1
			c-1.9,0-4.2,0-6.7,0.1c-0.4,0-0.7-0.2-0.8-0.5c-0.1-0.2-0.1-0.4-0.1-0.6c0-0.2,0-0.4,0.1-0.6c0.1-0.2,0.2-0.3,0.3-0.3
			c0.1,0,0.2-0.1,0.4-0.1c0.1,0,0.2,0,0.4,0c0.2,0,0.3,0,0.5,0c0.2,0,0.3,0,0.5,0c0.4,0,0.7,0,0.9-0.1c0.2,0,0.4-0.2,0.6-0.5
			c0.2-0.3,0.3-0.7,0.3-1.3v-1.2c0-0.9,0-2.7,0-5.4s0-5,0-6.7c0-1.8,0-2.7,0-2.9c0-0.5-0.2-0.8-0.6-0.8H175h-0.7
			c-0.5,0-1,0.2-1.3,0.7c-0.3,0.4-0.6,1.5-0.9,3.1c-0.2,0.1-0.5,0.2-0.7,0.2c-0.1,0-0.3,0-0.4-0.1c-0.4-0.1-0.6-0.3-0.6-0.6
			C170.3,26,170.5,24,170.9,21z"/>
		<path class="st2" d="M194.1,20.8c0-0.4,0.2-0.7,0.5-0.8c1.3-0.6,2.9-1.1,4.5-1.5c0.2,0,0.3-0.1,0.4-0.1c0.5,0,0.7,0.3,0.7,1V30
			c0,0,0,0.1,0,0.1c0,0.1,0,0.1,0,0.2c0,0.1,0,0.1,0.1,0.2c0,0,0.1,0.1,0.1,0c1.6-1,3.2-1.5,4.7-1.5c2.2,0,3.5,0.9,4.1,2.7
			c0.3,1,0.5,2.3,0.5,3.9c0,0.7,0,1.8-0.1,3.2c-0.1,1.4-0.1,2.5-0.1,3.2c0,0.3,0.1,0.5,0.3,0.6c0.2,0.1,0.7,0.1,1.5,0.1
			c0.4,0,0.6,0.1,0.7,0.2c0.1,0.2,0.2,0.4,0.2,0.8c0,0,0,0.1,0,0.1c0,0.2,0,0.4-0.1,0.5c-0.1,0.2-0.3,0.3-0.5,0.3
			c-0.9,0-1.8,0-2.8,0c-0.5,0-1,0-1.6,0c-1.6,0-2.6,0-3.1,0c-0.5,0-0.8-0.3-1-0.9c0-0.7,0.2-1,0.7-1h0.2c0.7,0,1.2-0.1,1.4-0.2
			c0.2-0.1,0.3-0.5,0.4-1.1c0.2-1.4,0.3-3,0.3-4.8c0-1.5-0.1-2.5-0.2-3.1c-0.1-0.6-0.3-1-0.6-1.4c-0.5-0.5-1.1-0.8-1.9-0.8
			c-0.2,0-0.5,0-0.7,0.1c-0.2,0-0.4,0.1-0.6,0.2c-0.2,0.1-0.4,0.2-0.5,0.2c-0.1,0-0.3,0.2-0.6,0.3c-0.3,0.2-0.5,0.3-0.5,0.3
			c-0.2,0.1-0.2,0.5-0.2,1.2v7.3c0,0.8,0.1,1.3,0.3,1.4c0.2,0.2,0.6,0.2,1.2,0.2c0.5,0,0.8,0.2,0.9,0.6c0,0,0,0.1,0,0.2
			c0,0.1,0,0.2,0,0.2s0,0.1,0,0.2c0,0.5-0.2,0.7-0.6,0.7c-0.1,0-0.1,0-0.2,0c-0.3,0-0.7,0-1.3,0s-1.3,0-2.2,0c-0.9,0-1.6,0-2.2,0
			c-0.6,0-1.1,0-1.4,0c0,0,0,0,0,0c-0.2,0-0.4-0.2-0.6-0.5c-0.1-0.2-0.1-0.4-0.1-0.5c0-0.2,0.1-0.4,0.2-0.6c0-0.1,0.2-0.2,0.6-0.2
			c0,0,0.1,0,0.2,0c0.1,0,0.2,0,0.2,0c0.6,0,1-0.2,1.2-0.5c0.2-0.3,0.2-1.2,0.2-2.6v-16l0-1.3c0-0.3-0.2-0.5-0.5-0.6
			c-0.1,0-0.4-0.1-0.7-0.1c-0.3,0-0.6-0.1-0.7-0.1C194.3,21.6,194.1,21.3,194.1,20.8z"/>
		<path class="st2" d="M213.2,37.1c0-2.3,0.8-4.1,2.4-5.6c1.6-1.5,3.6-2.3,6-2.3c2.4,0,4.4,0.8,6,2.3c1.6,1.5,2.4,3.4,2.4,5.6
			c0,2.2-0.8,4.1-2.4,5.7c-1.6,1.6-3.6,2.3-5.9,2.3c-2.4,0-4.5-0.8-6.1-2.3C214,41.3,213.2,39.4,213.2,37.1z M217.3,36.1
			c0,2,0.5,3.7,1.5,5c1,1.3,2.1,2,3.5,2c1.1,0,2-0.5,2.7-1.5c0.7-1,1.1-2.3,1.1-3.9c0-1.9-0.5-3.4-1.4-4.7c-1-1.2-2.1-1.9-3.5-1.9
			c-1.1,0-2,0.5-2.8,1.4C217.6,33.5,217.3,34.7,217.3,36.1z"/>
		<path class="st2" d="M231.2,31c0-0.1-0.1-0.2-0.1-0.3c0-0.1,0-0.2,0.1-0.4c0.1-0.3,0.3-0.4,0.6-0.5c0.3-0.1,0.9-0.2,1.9-0.5
			c1-0.3,1.7-0.5,2.2-0.6c0.3-0.1,0.6,0,0.8,0.2c0.2,0.2,0.3,0.4,0.3,0.7V38c0,1.8,0.2,2.9,0.5,3.4c0.4,0.5,1,0.8,2.1,0.8
			c1,0,2.1-0.5,3.5-1.6c0,0,0-0.1,0-0.1c0-0.1,0-0.1,0.1-0.2c0,0,0-0.1,0-0.1v-5.9v-0.8c0-1.2-0.3-1.8-0.9-2c-0.2,0-0.6-0.1-1-0.2
			c-0.4-0.1-0.8-0.1-1-0.1c-0.3-0.1-0.4-0.4-0.4-0.8c0-0.4,0.2-0.7,0.5-0.7c2.6-0.6,4.4-0.9,5.1-1c0,0,0.1,0,0.1,0
			c0.6,0,1,0.3,1,0.9v10.9v1.1c0,0.2,0.1,0.4,0.2,0.4c0.1,0.1,0.2,0.1,0.3,0.1c0.1,0,0.3-0.1,0.5-0.1c0.1,0,0.2-0.1,0.4-0.1
			c0.2,0,0.3-0.1,0.4-0.1c0.3,0,0.5,0.1,0.7,0.3c0.1,0.2,0.1,0.4,0.1,0.5c0,0.1,0,0.2-0.1,0.3c-0.1,0.3-0.3,0.5-0.5,0.6
			c-1.4,0.6-2.7,1-4,1.3c-0.2,0-0.4,0.1-0.6,0.1c-0.6,0-0.9-0.3-0.9-0.9c0,0,0-0.1,0-0.2c0-0.1,0-0.3,0-0.5c0-0.2,0-0.4,0-0.5
			c0-0.2-0.1-0.2-0.3-0.1c-0.7,0.5-1.2,0.8-1.6,1.1c-0.4,0.3-0.9,0.5-1.6,0.8c-0.7,0.3-1.3,0.4-1.9,0.4c-1.5,0-2.6-0.5-3.3-1.4
			c-0.7-0.9-1.1-2.1-1.1-3.7v-7.3c0-0.3,0-0.5-0.1-0.6c-0.1-0.1-0.2-0.2-0.4-0.3c-0.2,0-0.4-0.1-0.7-0.2c-0.3-0.1-0.5-0.2-0.7-0.2
			C231.4,31.3,231.3,31.2,231.2,31z"/>
		<path class="st2" d="M250.4,49.5c0-1,0.2-1.8,0.7-2.3c0.5-0.6,1.2-1.2,2.2-1.8c0.1,0,0.1-0.1,0.1-0.2c0-0.1,0-0.1,0-0.1
			c-1.6-0.6-2.3-1.6-2.3-2.8c0-0.1,0-0.2,0-0.3c0-0.1,0.1-0.2,0.1-0.3c0-0.1,0.1-0.2,0.1-0.2c0-0.1,0.1-0.1,0.2-0.2
			c0.1-0.1,0.2-0.2,0.2-0.2c0.1,0,0.1-0.1,0.3-0.2c0.1-0.1,0.2-0.1,0.3-0.1c0,0,0.1-0.1,0.2-0.1c0.1-0.1,0.2-0.1,0.2-0.1
			c0.5-0.2,0.8-0.4,1-0.6l-0.1-0.2c-1.6-1-2.4-2.5-2.4-4.3c0-1.7,0.6-3.2,1.8-4.4c1.2-1.2,2.7-1.8,4.5-1.8c1.7,0,3,0.5,4,1.5h0.1
			c0.5,0,1.6-0.1,3.2-0.4c0.4,0,0.6,0,0.8,0.1s0.3,0.3,0.3,0.7c0.1,1.2,0.1,1.9,0.1,1.9c-0.1,0.5-0.3,0.8-0.7,0.8
			c-0.1,0-0.4,0-0.9-0.1c-0.5-0.1-0.8-0.1-0.9-0.1c-0.1,0-0.1,0.1-0.1,0.2c0.1,0.4,0.2,0.8,0.2,1.3c0,1.7-0.6,3-1.9,4.1
			c-1.2,1.1-2.8,1.6-4.7,1.6c-0.5,0-0.9,0-1.3-0.1c-0.1,0.1-0.1,0.2-0.2,0.3c-0.1,0.1-0.2,0.2-0.3,0.3c-0.1,0.1-0.2,0.2-0.3,0.2
			c-0.3,0.3-0.4,0.5-0.4,0.6c0,0.1,0.1,0.2,0.3,0.3c0.6,0.2,1.8,0.2,3.5,0.2c0.7,0,1.2,0,1.5,0c0.3,0,0.8,0,1.5,0.1
			c0.7,0.1,1.2,0.1,1.5,0.3c0.4,0.1,0.8,0.3,1.3,0.5c0.5,0.2,0.9,0.5,1.1,0.8c0.3,0.3,0.5,0.7,0.7,1.2c0.2,0.5,0.3,1,0.3,1.6
			c0,1.9-1,3.4-2.9,4.7c-2,1.3-4.3,1.9-6.9,1.9c-1.4,0-2.8-0.4-4.1-1.1C251,51.7,250.4,50.7,250.4,49.5z M253.8,48.5
			c0,0.7,0.4,1.4,1.3,1.9c0.9,0.5,2,0.8,3.3,0.8c1.2,0,2.3-0.4,3.4-1.1c1.1-0.7,1.7-1.4,1.7-2.2c0-0.7-0.2-1.2-0.7-1.5
			c-0.5-0.3-1.5-0.5-2.9-0.6c-0.5,0-1.2-0.1-2.1-0.1c-0.8,0-1.5,0-1.9,0c-0.1,0.1-0.3,0.3-0.5,0.5c-0.2,0.2-0.4,0.4-0.4,0.5
			C254.2,47.4,253.8,48,253.8,48.5z M254.7,34.7c0,1.3,0.3,2.3,0.8,3.1c0.5,0.7,1.2,1.1,1.9,1.1c0.8,0,1.4-0.3,1.9-0.9
			s0.7-1.5,0.7-2.6c0-1.2-0.3-2.2-0.8-3c-0.6-0.8-1.2-1.2-2-1.2c-0.7,0-1.3,0.3-1.7,1C254.9,32.8,254.7,33.7,254.7,34.7z"/>
		<path class="st2" d="M267.4,20.8c0-0.4,0.2-0.7,0.5-0.8c1.3-0.6,2.9-1.1,4.5-1.5c0.2,0,0.3-0.1,0.4-0.1c0.5,0,0.7,0.3,0.7,1V30
			c0,0,0,0.1,0,0.1c0,0.1,0,0.1,0,0.2c0,0.1,0,0.1,0.1,0.2c0,0,0.1,0.1,0.1,0c1.6-1,3.2-1.5,4.7-1.5c2.2,0,3.5,0.9,4.1,2.7
			c0.3,1,0.5,2.3,0.5,3.9c0,0.7,0,1.8-0.1,3.2c-0.1,1.4-0.1,2.5-0.1,3.2c0,0.3,0.1,0.5,0.3,0.6c0.2,0.1,0.7,0.1,1.5,0.1
			c0.4,0,0.6,0.1,0.7,0.2c0.1,0.2,0.2,0.4,0.2,0.8c0,0,0,0.1,0,0.1c0,0.2,0,0.4-0.1,0.5c-0.1,0.2-0.3,0.3-0.5,0.3
			c-0.9,0-1.8,0-2.8,0c-0.5,0-1,0-1.6,0c-1.6,0-2.6,0-3.1,0c-0.5,0-0.8-0.3-1-0.9c0-0.7,0.2-1,0.7-1h0.2c0.7,0,1.2-0.1,1.4-0.2
			c0.2-0.1,0.3-0.5,0.4-1.1c0.2-1.4,0.3-3,0.3-4.8c0-1.5-0.1-2.5-0.2-3.1c-0.1-0.6-0.3-1-0.6-1.4c-0.5-0.5-1.1-0.8-1.9-0.8
			c-0.2,0-0.5,0-0.7,0.1c-0.2,0-0.4,0.1-0.6,0.2c-0.2,0.1-0.4,0.2-0.5,0.2c-0.1,0-0.3,0.2-0.6,0.3c-0.3,0.2-0.5,0.3-0.5,0.3
			c-0.2,0.1-0.2,0.5-0.2,1.2v7.3c0,0.8,0.1,1.3,0.3,1.4c0.2,0.2,0.6,0.2,1.2,0.2c0.5,0,0.8,0.2,0.9,0.6c0,0,0,0.1,0,0.2
			c0,0.1,0,0.2,0,0.2s0,0.1,0,0.2c0,0.5-0.2,0.7-0.6,0.7c-0.1,0-0.1,0-0.2,0c-0.3,0-0.7,0-1.3,0c-0.6,0-1.3,0-2.2,0
			c-0.9,0-1.6,0-2.2,0c-0.6,0-1.1,0-1.4,0c0,0,0,0,0,0c-0.2,0-0.4-0.2-0.6-0.5c-0.1-0.2-0.1-0.4-0.1-0.5c0-0.2,0.1-0.4,0.2-0.6
			c0-0.1,0.2-0.2,0.6-0.2c0,0,0.1,0,0.2,0c0.1,0,0.2,0,0.2,0c0.6,0,1-0.2,1.2-0.5c0.2-0.3,0.2-1.2,0.2-2.6v-16l0-1.3
			c0-0.3-0.2-0.5-0.5-0.6c-0.1,0-0.4-0.1-0.7-0.1c-0.3,0-0.6-0.1-0.7-0.1C267.6,21.6,267.4,21.3,267.4,20.8z"/>
		<path class="st2" d="M286.5,30.6c0.1-0.2,0.3-0.3,0.5-0.4c1.1-0.5,2.1-2,3-4.4c0.1-0.4,0.4-0.6,0.9-0.6c0.5,0,0.8,0.2,0.8,0.6
			l-0.1,2c0,0.6,0,1,0.1,1.4c0,0,0,0,0.1,0.1c0,0,0.1,0,0.1,0c0,0,0.1,0,0.1,0h3.5c0.2,0,0.4,0.1,0.6,0.2c0.2,0.2,0.2,0.4,0.1,0.7
			c-0.1,0.4-0.2,0.8-0.4,1.1c-0.2,0.3-0.5,0.4-0.9,0.4l-3-0.1c-0.2,0-0.3,0.2-0.3,0.6V38c0,1.8,0.1,2.9,0.4,3.5
			c0.3,0.5,0.7,0.8,1.4,0.8c0.6,0,1.2-0.5,1.7-1.6c0.2-0.3,0.4-0.4,0.7-0.4c0.3,0,0.5,0.1,0.7,0.3c0.1,0.2,0.2,0.4,0.2,0.6
			c0,0.1,0,0.3-0.1,0.5c-1,2.3-2.4,3.4-4.4,3.4c-1.2,0-2.2-0.4-3-1.3c-0.8-0.9-1.1-2-1.1-3.4v-1.4v-6.6c0-0.3-0.1-0.5-0.2-0.5
			c-0.3,0-0.7-0.1-1.3-0.1c-0.2-0.3-0.3-0.5-0.3-0.8C286.4,30.8,286.4,30.7,286.5,30.6z"/>
	</g>
</g>
</svg>
