<?xml version="1.0" standalone="no"?>
<!DOCTYPE svg PUBLIC "-//W3C//DTD SVG 20010904//EN"
 "http://www.w3.org/TR/2001/REC-SVG-20010904/DTD/svg10.dtd">
<svg version="1.0" xmlns="http://www.w3.org/2000/svg"
 width="700.000000pt" height="700.000000pt" viewBox="0 0 700.000000 700.000000"
 preserveAspectRatio="xMidYMid meet">
<metadata>
Created by potrace 1.11, written by Peter Selinger 2001-2013
</metadata>
<g transform="translate(0.000000,700.000000) scale(0.100000,-0.100000)"
fill="#000000" stroke="none">
<path d="M3289 6321 c-91 -36 -166 -116 -190 -204 -15 -58 -13 -140 6 -197 20
-62 98 -149 154 -175 l41 -18 0 -499 0 -498 -39 0 c-56 0 -200 -44 -289 -89
-42 -21 -111 -65 -152 -97 -75 -59 -75 -59 -160 -65 -47 -4 -104 -10 -127 -14
l-43 -8 0 339 c0 283 -2 343 -15 361 -8 11 -111 87 -230 167 l-215 147 0 103
0 103 44 17 c63 24 141 105 167 175 44 118 10 262 -81 345 -253 228 -637 -50
-500 -361 26 -59 89 -125 141 -148 l39 -18 0 -152 0 -152 33 -31 c17 -18 120
-92 227 -165 l195 -133 2 -344 3 -345 -46 -34 c-57 -43 -159 -177 -196 -258
-15 -34 -37 -67 -48 -73 -12 -7 -108 -9 -272 -8 l-252 3 -111 187 c-60 103
-118 196 -128 205 -15 15 -40 19 -162 21 l-144 3 -15 53 c-65 223 -346 299
-516 140 -73 -68 -95 -121 -95 -229 0 -108 22 -161 95 -229 126 -118 314 -113
438 11 l53 53 114 0 113 0 103 -177 c57 -98 116 -190 132 -205 l29 -28 184 0
c101 0 184 -4 184 -8 0 -4 -4 -12 -9 -18 -21 -21 -72 -137 -86 -196 -22 -95
-19 -254 7 -360 20 -84 20 -91 5 -123 l-17 -35 -600 0 c-549 0 -603 -1 -627
-17 -47 -31 -53 -64 -53 -297 l0 -215 -31 -17 c-57 -29 -115 -92 -144 -155
-24 -55 -27 -71 -23 -143 3 -66 10 -92 33 -134 98 -181 337 -221 489 -81 72
65 100 129 100 229 0 60 -5 86 -25 131 -29 62 -85 121 -141 150 l-38 19 0 155
0 155 509 0 509 0 7 -66 c17 -157 82 -283 221 -426 69 -71 189 -158 249 -179
l35 -13 0 -111 0 -111 -197 -129 c-109 -71 -204 -135 -210 -144 -9 -11 -13
-66 -13 -197 l0 -182 -54 -30 c-226 -128 -218 -443 14 -564 33 -16 66 -24 121
-26 67 -4 85 0 138 23 155 70 229 244 169 402 -25 68 -104 153 -161 174 l-37
13 0 138 0 139 205 134 c112 74 209 144 215 154 5 11 10 73 10 138 l0 118 153
0 c108 1 176 6 235 19 l83 18 62 -37 c34 -21 89 -48 122 -60 l60 -23 3 -185 2
-185 -47 -23 c-108 -52 -176 -161 -177 -284 -1 -183 148 -324 332 -313 189 11
324 182 290 367 -17 97 -72 174 -158 222 l-40 23 0 171 0 172 78 6 c42 3 107
13 145 22 l67 17 49 -45 c86 -81 228 -137 348 -137 51 0 53 -1 72 -38 24 -48
99 -238 157 -399 35 -98 55 -137 82 -166 85 -88 253 -87 437 1 111 53 194 132
242 228 55 113 49 153 -67 415 l-49 110 46 20 c74 31 169 105 226 174 54 65
115 178 137 253 l13 42 483 0 483 0 24 -52 c60 -130 200 -204 336 -178 113 21
190 82 238 187 22 48 25 65 21 137 -3 66 -10 91 -33 134 -74 136 -233 198
-383 148 -60 -20 -152 -98 -172 -146 l-12 -30 -478 0 -477 0 -6 120 -5 121 49
104 c56 119 96 249 106 350 l8 70 132 5 c125 5 134 6 158 30 13 14 71 104 127
200 l103 175 101 3 101 3 17 -40 c42 -91 160 -163 270 -164 87 -1 156 25 220
84 72 65 99 129 99 229 0 92 -25 155 -86 218 -51 52 -94 76 -167 91 -135 28
-282 -46 -340 -170 l-23 -49 -133 0 c-76 0 -143 -5 -157 -11 -22 -10 -89 -114
-231 -361 l-28 -48 -92 0 -92 0 -28 73 c-37 96 -122 223 -193 288 -76 69 -200
149 -307 199 -47 21 -86 43 -86 47 0 4 -20 35 -45 68 l-45 60 0 487 0 488 208
0 209 0 18 -40 c22 -50 92 -115 149 -141 179 -79 390 27 436 220 33 139 -37
284 -170 353 -65 33 -175 37 -253 8 -64 -24 -145 -96 -166 -148 l-13 -31 -289
-3 -289 -3 -32 -33 -33 -32 -3 -476 c-2 -395 -5 -475 -16 -471 -166 64 -384
77 -551 33 -57 -15 -58 -14 -99 11 -57 36 -175 89 -241 108 l-55 16 0 502 0
502 41 20 c161 76 223 287 132 442 -74 127 -248 187 -384 134z m174 -193 c26
-13 57 -68 57 -101 0 -40 -26 -84 -60 -102 -123 -64 -236 87 -139 185 40 39
89 45 142 18z m-1455 -42 c26 -13 42 -37 56 -79 16 -52 -35 -129 -94 -141 -66
-13 -140 46 -140 111 0 94 95 152 178 109z m3436 -520 c44 -19 76 -61 76 -103
0 -100 -99 -155 -181 -100 -63 42 -71 124 -18 177 25 25 39 31 82 39 4 0 22
-5 41 -13z m-1977 -1052 c81 -17 153 -42 153 -53 0 -4 -14 -20 -31 -37 -87
-82 -132 -160 -215 -373 -25 -63 -55 -128 -66 -144 -25 -35 -90 -66 -136 -67
-91 0 -146 -63 -123 -140 21 -72 81 -93 202 -70 90 17 165 63 211 129 l17 24
37 -33 c57 -50 135 -80 210 -82 60 -2 66 0 96 30 26 26 33 40 33 73 0 34 -6
46 -33 70 -18 16 -44 29 -57 29 -39 0 -89 24 -113 54 -11 15 -26 51 -32 79
-36 175 160 352 445 404 229 41 447 -65 565 -274 23 -39 40 -57 63 -65 18 -6
86 -39 152 -72 101 -51 131 -72 200 -141 57 -56 91 -100 113 -145 33 -67 62
-178 62 -240 0 -47 -25 -173 -47 -238 l-18 -53 -61 69 c-144 160 -358 260
-594 278 -78 6 -87 4 -113 -16 -38 -30 -50 -65 -37 -105 18 -56 48 -74 136
-85 228 -29 387 -112 489 -254 106 -149 121 -256 68 -491 -49 -219 -196 -361
-420 -404 -81 -15 -84 -17 -78 -40 3 -13 50 -121 104 -240 128 -283 127 -280
102 -329 -43 -84 -176 -162 -282 -165 l-60 -2 -64 180 c-69 193 -155 377 -204
436 l-31 37 -117 4 c-96 3 -128 8 -170 27 -29 13 -53 26 -53 30 0 3 30 33 66
65 80 71 133 142 194 256 61 115 147 202 220 224 29 9 73 16 97 16 25 0 54 5
66 11 92 47 67 179 -36 194 -61 9 -194 -18 -264 -53 -110 -56 -195 -149 -274
-302 -49 -95 -183 -226 -276 -273 -102 -50 -203 -71 -317 -65 -109 6 -180 29
-295 94 -134 76 -212 165 -275 316 -41 97 -84 130 -142 108 -50 -19 -74 -49
-74 -93 0 -47 61 -181 113 -249 44 -57 42 -58 -97 -58 -201 0 -342 56 -477
190 -131 131 -172 237 -149 396 12 91 35 137 92 191 95 86 269 114 489 77 102
-17 111 -17 143 -1 43 20 70 68 61 106 -17 78 -129 118 -350 128 -145 6 -227
-7 -336 -51 -35 -14 -65 -23 -69 -20 -3 3 -5 56 -5 118 0 109 1 114 38 188 46
93 113 158 224 216 78 40 78 41 101 104 78 221 248 331 507 330 l99 0 61 55
c112 102 220 162 336 188 86 18 135 18 226 -1z m-2761 -60 c28 -29 34 -43 34
-79 0 -36 -6 -50 -34 -79 -29 -31 -40 -36 -79 -36 -112 0 -160 127 -77 203 24
21 40 27 76 27 40 0 51 -5 80 -36z m5779 -370 c95 -45 78 -184 -25 -215 -101
-30 -187 93 -124 178 39 53 90 65 149 37z m83 -1414 c124 -76 21 -268 -110
-206 -88 42 -90 168 -4 210 42 21 75 20 114 -4z m-6024 -335 c72 -35 86 -129
28 -188 -24 -24 -40 -30 -75 -31 -58 -1 -97 27 -115 81 -17 53 2 104 50 133
39 24 69 25 112 5z m2689 -917 c41 -49 34 -114 -19 -163 -40 -37 -111 -35
-152 3 -55 52 -52 139 7 181 54 39 120 30 164 -21z m-1347 -352 c29 -29 34
-41 34 -80 0 -105 -127 -159 -198 -83 -73 78 -21 197 85 197 38 0 50 -5 79
-34z"/>
<path d="M3540 3314 c-109 -29 -212 -110 -257 -201 -29 -61 -41 -172 -28 -259
9 -65 49 -104 104 -104 73 0 103 50 94 158 -7 84 11 128 66 166 48 33 92 46
159 46 46 0 58 4 83 29 22 22 29 39 29 68 0 98 -100 137 -250 97z"/>
</g>
</svg>
